<?xml version="1.0" encoding="UTF-8" standalone="no"?>
<svg width="29px" height="29px" viewBox="0 0 29 29" version="1.1" xmlns="http://www.w3.org/2000/svg" xmlns:xlink="http://www.w3.org/1999/xlink" xmlns:sketch="http://www.bohemiancoding.com/sketch/ns">
    <!-- Generator: Sketch 3.2.2 (9983) - http://www.bohemiancoding.com/sketch -->
    <title>linkedin</title>
    <desc>Created with Sketch.</desc>
    <defs></defs>
    <g id="Page-1" stroke="none" stroke-width="1" fill="none" fill-rule="evenodd" sketch:type="MSPage">
        <g id="linkedin" sketch:type="MSLayerGroup" fill="#CCC4BE">
            <path d="M9.736,13.143 L11.767,13.143 L11.767,19.251 L9.736,19.251 L9.736,13.143 Z" id="Fill-1" sketch:type="MSShapeGroup"></path>
            <path d="M10.765,10.199 C10.07,10.199 9.616,10.656 9.616,11.254 C9.616,11.841 10.058,12.31 10.738,12.31 L10.751,12.31 C11.46,12.31 11.9,11.841 11.9,11.254 C11.886,10.656 11.46,10.199 10.765,10.199" id="Fill-2" sketch:type="MSShapeGroup"></path>
            <path d="M16.749,13 C15.668,13 15.187,13.595 14.918,14.012 L14.918,14.03 L14.907,14.03 C14.91,14.024 14.915,14.018 14.918,14.012 L14.918,13.144 L12.89,13.144 C12.916,13.717 12.89,19.251 12.89,19.251 L14.918,19.251 L14.918,15.84 C14.918,15.658 14.931,15.477 14.987,15.345 C15.133,14.98 15.467,14.603 16.029,14.603 C16.762,14.603 17.056,15.162 17.056,15.983 L17.056,19.251 L19.086,19.251 L19.086,15.75 C19.086,13.873 18.084,13 16.749,13" id="Fill-3" sketch:type="MSShapeGroup"></path>
            <path d="M14.413,0.405 C6.521,0.405 0.125,6.8 0.125,14.692 C0.125,22.583 6.521,28.979 14.413,28.979 C22.303,28.979 28.7,22.583 28.7,14.692 C28.7,6.8 22.303,0.405 14.413,0.405 L14.413,0.405 Z M21.132,20.485 C21.132,21.02 20.687,21.454 20.139,21.454 L8.686,21.454 C8.136,21.454 7.693,21.02 7.693,20.485 L7.693,8.899 C7.693,8.363 8.136,7.93 8.686,7.93 L20.139,7.93 C20.687,7.93 21.132,8.363 21.132,8.899 L21.132,20.485 L21.132,20.485 Z" id="Fill-4" sketch:type="MSShapeGroup"></path>
        </g>
    </g>
</svg>