<?xml version="1.0" encoding="UTF-8" standalone="no"?>
<svg width="29px" height="30px" viewBox="0 0 29 30" version="1.1" xmlns="http://www.w3.org/2000/svg" xmlns:xlink="http://www.w3.org/1999/xlink">
    <!-- Generator: Sketch 3.6.1 (26313) - http://www.bohemiancoding.com/sketch -->
    <title>dribbble</title>
    <desc>Created with Sketch.</desc>
    <defs></defs>
    <g id="Page-1" stroke="none" stroke-width="1" fill="none" fill-rule="evenodd" fill-opacity="0.5">
        <g id="dribbble" fill="#2C2748">
            <path d="M14.288,15.112 C14.67,14.951 15.083,14.849 15.479,14.672 C15.295,14.327 15.12,13.93 14.959,13.61 C14.903,13.493 14.862,13.349 14.754,13.274 C12.204,14.012 9.377,14.474 6.079,14.465 C6.012,17.129 6.979,18.985 8.254,20.394 C9.725,18.118 11.682,16.206 14.288,15.112" id="Fill-518"></path>
            <path d="M16.022,16.121 C13.084,17.18 10.778,18.87 9.342,21.43 C10.307,22.189 11.618,22.843 13.149,23.113 C14.834,23.41 16.602,23.096 17.862,22.544 C17.483,20.371 16.872,18.306 16.178,16.484 C16.133,16.367 16.139,16.205 16.022,16.121" id="Fill-519"></path>
            <path d="M10.922,7.058 C8.561,8.236 6.905,10.121 6.235,12.989 C9.17,12.955 11.776,12.591 14.081,11.927 C13.083,10.248 12.081,8.576 10.922,7.058" id="Fill-520"></path>
            <path d="M21.874,21.455 C21.083,22.321 20.143,23.017 19.026,23.579 C17.915,24.138 16.647,24.568 15.143,24.641 C11.973,24.795 9.491,23.576 7.84,22.052 C6.139,20.483 4.854,18.379 4.629,15.345 C4.51,13.733 4.827,12.306 5.303,11.098 C5.797,9.842 6.383,8.901 7.192,8.017 C8.325,6.781 9.864,5.705 11.801,5.169 C12.497,4.976 13.221,4.853 13.952,4.806 C17.194,4.597 19.59,5.903 21.278,7.421 C22.961,8.933 24.286,11.13 24.463,14.154 C24.653,17.336 23.43,19.758 21.874,21.455 L21.874,21.455 Z M14.543,0.381 C6.624,0.381 0.206,6.801 0.206,14.719 C0.206,22.637 6.624,29.057 14.543,29.057 C21.762,29.057 27.733,23.72 28.731,16.777 C28.829,16.303 28.874,15.815 28.866,15.312 C28.874,15.115 28.881,14.918 28.881,14.719 C28.881,6.801 22.461,0.381 14.543,0.381 L14.543,0.381 Z" id="Fill-521"></path>
            <path d="M17.655,15.707 C18.309,17.608 18.911,19.56 19.286,21.741 C19.754,21.479 20.17,21.115 20.555,20.731 C21.727,19.558 22.592,18.038 22.936,16.07 C21.477,15.644 19.432,15.426 17.655,15.707" id="Fill-522"></path>
            <path d="M15.764,11.435 C17.538,10.715 19.116,9.798 20.165,8.353 C18.772,7.181 16.764,6.122 14.209,6.256 C13.59,6.288 13.133,6.334 12.579,6.463 C13.532,7.862 14.547,9.314 15.375,10.788 C15.497,11.002 15.579,11.254 15.764,11.435" id="Fill-523"></path>
            <path d="M16.385,12.729 C16.584,13.117 16.786,13.551 16.956,13.946 C17.016,14.09 17.042,14.259 17.163,14.361 C19.131,14.141 21.319,14.305 23.04,14.646 C22.973,12.321 22.202,10.702 21.124,9.389 C19.893,10.85 18.262,11.913 16.385,12.729" id="Fill-524"></path>
        </g>
    </g>
</svg>