<?xml version="1.0" encoding="UTF-8" standalone="no"?>
<svg width="30px" height="30px" viewBox="0 0 30 30" version="1.1" xmlns="http://www.w3.org/2000/svg" xmlns:xlink="http://www.w3.org/1999/xlink" xmlns:sketch="http://www.bohemiancoding.com/sketch/ns">
    <!-- Generator: Sketch 3.2.2 (9983) - http://www.bohemiancoding.com/sketch -->
    <title>dribbble</title>
    <desc>Created with Sketch.</desc>
    <defs></defs>
    <g id="Page-1" stroke="none" stroke-width="1" fill="none" fill-rule="evenodd" sketch:type="MSPage">
        <g id="dribbble" sketch:type="MSLayerGroup" fill="#CCC4BE">
            <path d="M14.602,15.223 C14.985,15.062 15.397,14.96 15.793,14.783 C15.61,14.438 15.434,14.041 15.274,13.721 C15.217,13.604 15.176,13.46 15.069,13.384 C12.518,14.123 9.692,14.585 6.393,14.576 C6.327,17.239 7.293,19.096 8.569,20.505 C10.04,18.229 11.997,16.317 14.602,15.223" id="Fill-1" sketch:type="MSShapeGroup"></path>
            <path d="M16.336,16.232 C13.399,17.291 11.092,18.981 9.657,21.541 C10.622,22.299 11.932,22.954 13.463,23.224 C15.149,23.521 16.917,23.207 18.176,22.655 C17.797,20.482 17.186,18.417 16.493,16.595 C16.448,16.478 16.454,16.316 16.336,16.232" id="Fill-2" sketch:type="MSShapeGroup"></path>
            <path d="M11.237,7.169 C8.875,8.347 7.219,10.232 6.549,13.1 C9.485,13.066 12.09,12.702 14.395,12.038 C13.397,10.359 12.395,8.687 11.237,7.169" id="Fill-3" sketch:type="MSShapeGroup"></path>
            <path d="M14.858,0.492 C6.938,0.492 0.52,6.912 0.52,14.83 C0.52,22.748 6.938,29.168 14.858,29.168 C22.077,29.168 28.047,23.831 29.045,16.888 C29.143,16.414 29.188,15.926 29.18,15.423 C29.188,15.226 29.196,15.029 29.196,14.83 C29.196,6.912 22.776,0.492 14.858,0.492 L14.858,0.492 Z M22.188,21.566 C21.397,22.432 20.457,23.128 19.34,23.69 C18.229,24.249 16.961,24.679 15.458,24.752 C12.288,24.906 9.805,23.687 8.155,22.163 C6.454,20.593 5.168,18.49 4.944,15.456 C4.825,13.843 5.141,12.417 5.618,11.209 C6.112,9.953 6.698,9.012 7.506,8.128 C8.639,6.892 10.178,5.816 12.116,5.28 C12.811,5.087 13.536,4.964 14.266,4.917 C17.508,4.708 19.905,6.014 21.592,7.532 C23.276,9.044 24.6,11.241 24.778,14.265 C24.967,17.447 23.745,19.869 22.188,21.566 L22.188,21.566 Z" id="Fill-4" sketch:type="MSShapeGroup"></path>
            <path d="M17.969,15.818 C18.624,17.719 19.225,19.671 19.6,21.852 C20.069,21.59 20.485,21.226 20.87,20.841 C22.042,19.669 22.907,18.149 23.25,16.181 C21.792,15.755 19.747,15.537 17.969,15.818" id="Fill-5" sketch:type="MSShapeGroup"></path>
            <path d="M16.079,11.546 C17.852,10.826 19.43,9.909 20.479,8.464 C19.086,7.292 17.079,6.233 14.524,6.367 C13.905,6.399 13.448,6.445 12.893,6.574 C13.846,7.973 14.862,9.424 15.69,10.899 C15.811,11.113 15.893,11.365 16.079,11.546" id="Fill-6" sketch:type="MSShapeGroup"></path>
            <path d="M16.7,12.84 C16.899,13.228 17.1,13.662 17.27,14.057 C17.331,14.201 17.356,14.37 17.477,14.472 C19.446,14.252 21.633,14.416 23.354,14.757 C23.288,12.432 22.516,10.813 21.438,9.5 C20.207,10.961 18.577,12.024 16.7,12.84" id="Fill-7" sketch:type="MSShapeGroup"></path>
        </g>
    </g>
</svg>