<?xml version="1.0" encoding="UTF-8" standalone="no"?>
<svg width="29px" height="30px" viewBox="0 0 29 30" version="1.1" xmlns="http://www.w3.org/2000/svg" xmlns:xlink="http://www.w3.org/1999/xlink">
    <!-- Generator: Sketch 3.6.1 (26313) - http://www.bohemiancoding.com/sketch -->
    <title>instagram copy</title>
    <desc>Created with Sketch.</desc>
    <defs></defs>
    <g id="Page-1" stroke="none" stroke-width="1" fill="none" fill-rule="evenodd" fill-opacity="0.5">
        <g id="instagram-copy" fill="#2C2748">
            <path d="M10.305,11.326 L10.809,11.326 L10.809,8.189 L10.305,8.189 L10.305,11.326 Z" id="Fill-419"></path>
            <path d="M7.697,9.119 L7.697,11.326 L8.201,11.326 L8.201,8.275 C7.905,8.423 7.697,8.746 7.697,9.119" id="Fill-420"></path>
            <path d="M18.858,11.21 L20.25,11.21 C20.772,11.21 21.198,10.783 21.198,10.262 L21.198,9.252 C21.198,8.73 20.772,8.304 20.25,8.304 L18.858,8.304 C18.336,8.304 17.911,8.73 17.911,9.252 L17.911,10.262 C17.911,10.783 18.336,11.21 18.858,11.21" id="Fill-421"></path>
            <path d="M8.567,11.326 L9.07,11.326 L9.07,8.189 L8.567,8.189 L8.567,11.326 Z" id="Fill-422"></path>
            <path d="M9.436,11.326 L9.94,11.326 L9.94,8.189 L9.436,8.189 L9.436,11.326 Z" id="Fill-423"></path>
            <path d="M22.085,21.242 C22.085,21.976 21.485,22.577 20.75,22.577 L8.292,22.577 C7.558,22.577 6.958,21.976 6.958,21.242 L6.958,12.445 L11.304,12.445 C11.053,12.939 10.911,13.496 10.911,14.087 C10.911,16.081 12.528,17.697 14.522,17.697 C16.515,17.697 18.132,16.081 18.132,14.087 C18.132,13.496 17.989,12.939 17.737,12.445 L22.085,12.445 L22.085,21.242 L22.085,21.242 Z M17.691,14.086 C17.691,15.834 16.269,17.256 14.521,17.256 C12.773,17.256 11.352,15.834 11.352,14.086 C11.352,12.339 12.773,10.918 14.521,10.918 C16.269,10.918 17.691,12.339 17.691,14.086 L17.691,14.086 Z M6.958,8.785 C6.958,8.05 7.557,7.449 8.293,7.449 L20.75,7.449 C21.485,7.449 22.084,8.05 22.084,8.785 L22.084,11.908 L17.402,11.908 C16.742,11.039 15.698,10.475 14.521,10.475 C13.344,10.475 12.301,11.039 11.641,11.908 L6.958,11.908 L6.958,8.785 L6.958,8.785 Z M14.521,0.638 C6.582,0.638 0.146,7.075 0.146,15.013 C0.146,22.952 6.582,29.388 14.521,29.388 C22.46,29.388 28.896,22.952 28.896,15.013 C28.896,7.075 22.46,0.638 14.521,0.638 L14.521,0.638 Z" id="Fill-424"></path>
            <path d="M14.521,11.5 C13.092,11.5 11.935,12.658 11.935,14.086 C11.935,15.515 13.092,16.673 14.521,16.673 C15.95,16.673 17.108,15.515 17.108,14.086 C17.108,12.658 15.95,11.5 14.521,11.5" id="Fill-425"></path>
        </g>
    </g>
</svg>