<?xml version="1.0" encoding="UTF-8" standalone="no"?>
<svg width="30px" height="30px" viewBox="0 0 30 30" version="1.1" xmlns="http://www.w3.org/2000/svg" xmlns:xlink="http://www.w3.org/1999/xlink" xmlns:sketch="http://www.bohemiancoding.com/sketch/ns">
    <!-- Generator: Sketch 3.2.2 (9983) - http://www.bohemiancoding.com/sketch -->
    <title>instagram</title>
    <desc>Created with Sketch.</desc>
    <defs></defs>
    <g id="Page-1" stroke="none" stroke-width="1" fill="none" fill-rule="evenodd" sketch:type="MSPage">
        <g id="instagram" sketch:type="MSLayerGroup" fill="#CCC4BE">
            <path d="M10.995,8.301 L11.499,8.301 L11.499,11.438 L10.995,11.438 L10.995,8.301 Z" id="Fill-1" sketch:type="MSShapeGroup"></path>
            <path d="M8.386,9.231 L8.386,11.438 L8.89,11.438 L8.89,8.387 C8.594,8.536 8.386,8.858 8.386,9.231" id="Fill-2" sketch:type="MSShapeGroup"></path>
            <path d="M19.547,11.322 L20.94,11.322 C21.462,11.322 21.887,10.895 21.887,10.374 L21.887,9.364 C21.887,8.842 21.462,8.416 20.94,8.416 L19.547,8.416 C19.026,8.416 18.6,8.842 18.6,9.364 L18.6,10.374 C18.6,10.895 19.026,11.322 19.547,11.322" id="Fill-3" sketch:type="MSShapeGroup"></path>
            <path d="M9.256,8.301 L9.759,8.301 L9.759,11.438 L9.256,11.438 L9.256,8.301 Z" id="Fill-4" sketch:type="MSShapeGroup"></path>
            <path d="M10.126,8.301 L10.63,8.301 L10.63,11.438 L10.126,11.438 L10.126,8.301 Z" id="Fill-5" sketch:type="MSShapeGroup"></path>
            <path d="M15.21,0.75 C7.271,0.75 0.836,7.187 0.836,15.125 C0.836,23.064 7.271,29.5 15.21,29.5 C23.15,29.5 29.585,23.064 29.585,15.125 C29.585,7.187 23.15,0.75 15.21,0.75 L15.21,0.75 Z M7.647,8.897 C7.647,8.163 8.247,7.561 8.983,7.561 L21.439,7.561 C22.174,7.561 22.774,8.163 22.774,8.897 L22.774,12.02 L18.091,12.02 C17.431,11.151 16.387,10.587 15.21,10.587 C14.034,10.587 12.991,11.151 12.331,12.02 L7.647,12.02 L7.647,8.897 L7.647,8.897 Z M18.38,14.198 C18.38,15.946 16.958,17.369 15.21,17.369 C13.462,17.369 12.042,15.946 12.042,14.198 C12.042,12.452 13.462,11.03 15.21,11.03 C16.958,11.03 18.38,12.452 18.38,14.198 L18.38,14.198 Z M22.775,21.354 C22.775,22.088 22.174,22.689 21.44,22.689 L8.982,22.689 C8.248,22.689 7.647,22.088 7.647,21.354 L7.647,12.557 L11.994,12.557 C11.743,13.051 11.6,13.608 11.6,14.199 C11.6,16.193 13.217,17.809 15.212,17.809 C17.205,17.809 18.822,16.193 18.822,14.199 C18.822,13.608 18.678,13.051 18.426,12.557 L22.775,12.557 L22.775,21.354 L22.775,21.354 Z" id="Fill-6" sketch:type="MSShapeGroup"></path>
            <path d="M15.21,11.612 C13.782,11.612 12.625,12.77 12.625,14.198 C12.625,15.627 13.782,16.786 15.21,16.786 C16.639,16.786 17.797,15.627 17.797,14.198 C17.797,12.77 16.639,11.612 15.21,11.612" id="Fill-7" sketch:type="MSShapeGroup"></path>
        </g>
    </g>
</svg>