<?xml version="1.0" encoding="UTF-8" standalone="no"?>
<svg width="30px" height="30px" viewBox="0 0 30 30" version="1.1" xmlns="http://www.w3.org/2000/svg" xmlns:xlink="http://www.w3.org/1999/xlink">
    <!-- Generator: Sketch 3.6.1 (26313) - http://www.bohemiancoding.com/sketch -->
    <title>linkedin</title>
    <desc>Created with Sketch.</desc>
    <defs></defs>
    <g id="Page-1" stroke="none" stroke-width="1" fill="none" fill-rule="evenodd" fill-opacity="0.5">
        <g id="linkedin" fill="#2C2748">
            <path d="M10.058,19.468 L12.089,19.468 L12.089,13.36 L10.058,13.36 L10.058,19.468 Z" id="Fill-332"></path>
            <path d="M11.087,10.417 C10.392,10.417 9.939,10.874 9.939,11.471 C9.939,12.058 10.38,12.527 11.06,12.527 L11.074,12.527 C11.783,12.527 12.222,12.058 12.222,11.471 C12.208,10.874 11.783,10.417 11.087,10.417" id="Fill-333"></path>
            <path d="M17.072,13.217 C15.992,13.217 15.509,13.813 15.242,14.23 L15.242,14.247 L15.23,14.247 C15.232,14.241 15.238,14.235 15.242,14.23 L15.242,13.361 L13.212,13.361 C13.238,13.934 13.212,19.468 13.212,19.468 L15.242,19.468 L15.242,16.057 C15.242,15.876 15.253,15.694 15.31,15.562 C15.457,15.197 15.791,14.82 16.351,14.82 C17.085,14.82 17.378,15.38 17.378,16.2 L17.378,19.468 L19.41,19.468 L19.41,15.967 C19.41,14.09 18.408,13.217 17.072,13.217" id="Fill-334"></path>
            <path d="M21.455,20.702 C21.455,21.237 21.009,21.671 20.462,21.671 L9.009,21.671 C8.458,21.671 8.015,21.237 8.015,20.702 L8.015,9.116 C8.015,8.581 8.458,8.147 9.009,8.147 L20.462,8.147 C21.009,8.147 21.455,8.581 21.455,9.116 L21.455,20.702 L21.455,20.702 Z M14.736,0.622 C6.843,0.622 0.447,7.017 0.447,14.909 C0.447,22.8 6.843,29.196 14.736,29.196 C22.626,29.196 29.023,22.8 29.023,14.909 C29.023,7.017 22.626,0.622 14.736,0.622 L14.736,0.622 Z" id="Fill-335"></path>
        </g>
    </g>
</svg>